<svg xmlns="http://www.w3.org/2000/svg" xmlns:xlink="http://www.w3.org/1999/xlink" width="40" zoomAndPan="magnify" viewBox="0 0 30 30.000001" height="40" preserveAspectRatio="xMidYMid meet" version="1.2"><defs/><g id="2c36cb22b7"><g style="fill:#ff66c4;fill-opacity:1;"><g transform="translate(6.71443, 11.943295)"><path style="stroke:none" d="M 3.6875 0.046875 C 2.46875 0.046875 1.59375 -0.128906 1.0625 -0.484375 C 0.539062 -0.835938 0.28125 -1.382812 0.28125 -2.125 L 0.28125 -7.09375 L 4.15625 -7.09375 L 4.15625 -2.125 C 4.15625 -1.644531 4.257812 -1.296875 4.46875 -1.078125 C 4.6875 -0.859375 4.96875 -0.75 5.3125 -0.75 C 6.09375 -0.75 6.484375 -1.207031 6.484375 -2.125 L 6.484375 -7.09375 L 7.09375 -7.09375 L 7.09375 -2.125 C 7.09375 -1.550781 6.96875 -1.109375 6.71875 -0.796875 C 6.476562 -0.484375 6.113281 -0.265625 5.625 -0.140625 C 5.144531 -0.015625 4.5 0.046875 3.6875 0.046875 Z M 3.6875 0.046875 "/></g></g><g style="fill:#ff66c4;fill-opacity:1;"><g transform="translate(14.091073, 11.943295)"><path style="stroke:none" d="M 0.28125 -7.09375 L 7.0625 -7.09375 C 7.382812 -7.09375 7.6875 -7.007812 7.96875 -6.84375 C 8.25 -6.675781 8.472656 -6.453125 8.640625 -6.171875 C 8.804688 -5.890625 8.890625 -5.582031 8.890625 -5.25 C 8.890625 -4.8125 8.753906 -4.414062 8.484375 -4.0625 C 8.210938 -3.707031 7.875 -3.476562 7.46875 -3.375 C 7.832031 -3.269531 8.128906 -3.078125 8.359375 -2.796875 C 8.585938 -2.515625 8.703125 -2.191406 8.703125 -1.828125 L 8.703125 0 L 5.3125 0 L 5.3125 -2.203125 C 5.3125 -2.410156 5.269531 -2.578125 5.1875 -2.703125 C 5.09375 -2.847656 4.988281 -2.953125 4.875 -3.015625 C 4.738281 -3.085938 4.585938 -3.140625 4.421875 -3.171875 C 4.242188 -3.210938 4.078125 -3.234375 3.921875 -3.234375 L 3.640625 -3.25 L 3.640625 0 L 0.28125 0 Z M 4 -3.84375 C 4.238281 -3.84375 4.460938 -3.898438 4.671875 -4.015625 C 4.878906 -4.128906 5.039062 -4.289062 5.15625 -4.5 C 5.269531 -4.707031 5.328125 -4.925781 5.328125 -5.15625 C 5.328125 -5.40625 5.269531 -5.628906 5.15625 -5.828125 C 5.039062 -6.035156 4.878906 -6.203125 4.671875 -6.328125 C 4.460938 -6.453125 4.238281 -6.515625 4 -6.515625 L 3.640625 -6.515625 L 3.640625 -3.828125 Z M 4 -3.84375 "/></g></g><g style="fill:#ff66c4;fill-opacity:1;"><g transform="translate(1.133544, 25.453524)"><path style="stroke:none" d="M 0.28125 -7.09375 L 6.71875 -7.09375 C 7.3125 -7.09375 7.789062 -6.921875 8.15625 -6.578125 C 8.519531 -6.234375 8.703125 -5.769531 8.703125 -5.1875 C 8.703125 -4.84375 8.613281 -4.519531 8.4375 -4.21875 C 8.269531 -3.925781 8.035156 -3.691406 7.734375 -3.515625 C 7.441406 -3.347656 7.109375 -3.265625 6.734375 -3.265625 L 3.640625 -3.25 L 3.640625 0 L 0.28125 0 Z M 4 -3.84375 C 4.238281 -3.84375 4.460938 -3.898438 4.671875 -4.015625 C 4.878906 -4.128906 5.039062 -4.289062 5.15625 -4.5 C 5.269531 -4.707031 5.328125 -4.925781 5.328125 -5.15625 C 5.328125 -5.40625 5.269531 -5.628906 5.15625 -5.828125 C 5.039062 -6.035156 4.878906 -6.203125 4.671875 -6.328125 C 4.460938 -6.453125 4.238281 -6.515625 4 -6.515625 L 3.640625 -6.515625 L 3.640625 -3.84375 Z M 4 -3.84375 "/></g></g><g style="fill:#ff66c4;fill-opacity:1;"><g transform="translate(9.908501, 25.453524)"><path style="stroke:none" d="M 5.015625 0.046875 C 4.117188 0.046875 3.304688 -0.0859375 2.578125 -0.359375 C 1.847656 -0.640625 1.269531 -1.050781 0.84375 -1.59375 C 0.425781 -2.132812 0.21875 -2.785156 0.21875 -3.546875 C 0.21875 -4.304688 0.425781 -4.957031 0.84375 -5.5 C 1.269531 -6.039062 1.847656 -6.445312 2.578125 -6.71875 C 3.304688 -7 4.117188 -7.140625 5.015625 -7.140625 C 5.921875 -7.140625 6.734375 -7 7.453125 -6.71875 C 8.179688 -6.445312 8.753906 -6.039062 9.171875 -5.5 C 9.597656 -4.957031 9.8125 -4.304688 9.8125 -3.546875 C 9.8125 -2.785156 9.597656 -2.132812 9.171875 -1.59375 C 8.753906 -1.050781 8.179688 -0.640625 7.453125 -0.359375 C 6.734375 -0.0859375 5.921875 0.046875 5.015625 0.046875 Z M 5.015625 -0.546875 C 5.304688 -0.546875 5.519531 -0.675781 5.65625 -0.9375 C 5.769531 -1.125 5.84375 -1.46875 5.875 -1.96875 C 5.894531 -2.238281 5.90625 -2.765625 5.90625 -3.546875 C 5.90625 -4.347656 5.890625 -4.914062 5.859375 -5.25 C 5.835938 -5.65625 5.765625 -5.960938 5.640625 -6.171875 C 5.503906 -6.421875 5.296875 -6.546875 5.015625 -6.546875 C 4.734375 -6.546875 4.523438 -6.421875 4.390625 -6.171875 C 4.273438 -5.960938 4.195312 -5.65625 4.15625 -5.25 C 4.132812 -4.894531 4.125 -4.328125 4.125 -3.546875 C 4.125 -2.671875 4.132812 -2.144531 4.15625 -1.96875 C 4.175781 -1.507812 4.25 -1.164062 4.375 -0.9375 C 4.519531 -0.675781 4.734375 -0.546875 5.015625 -0.546875 Z M 5.015625 -0.546875 "/></g></g><g style="fill:#ff66c4;fill-opacity:1;"><g transform="translate(19.939915, 25.453524)"><path style="stroke:none" d="M 0.28125 -7.09375 L 6.71875 -7.09375 C 7.3125 -7.09375 7.789062 -6.921875 8.15625 -6.578125 C 8.519531 -6.234375 8.703125 -5.769531 8.703125 -5.1875 C 8.703125 -4.84375 8.613281 -4.519531 8.4375 -4.21875 C 8.269531 -3.925781 8.035156 -3.691406 7.734375 -3.515625 C 7.441406 -3.347656 7.109375 -3.265625 6.734375 -3.265625 L 3.640625 -3.25 L 3.640625 0 L 0.28125 0 Z M 4 -3.84375 C 4.238281 -3.84375 4.460938 -3.898438 4.671875 -4.015625 C 4.878906 -4.128906 5.039062 -4.289062 5.15625 -4.5 C 5.269531 -4.707031 5.328125 -4.925781 5.328125 -5.15625 C 5.328125 -5.40625 5.269531 -5.628906 5.15625 -5.828125 C 5.039062 -6.035156 4.878906 -6.203125 4.671875 -6.328125 C 4.460938 -6.453125 4.238281 -6.515625 4 -6.515625 L 3.640625 -6.515625 L 3.640625 -3.84375 Z M 4 -3.84375 "/></g></g></g></svg>